<?xml version="1.0" encoding="utf-8"?>
<!-- Generator: Adobe Illustrator 21.1.0, SVG Export Plug-In . SVG Version: 6.00 Build 0)  -->
<svg version="1.1" id="Layer_1" xmlns="http://www.w3.org/2000/svg" xmlns:xlink="http://www.w3.org/1999/xlink" x="0px" y="0px"
	 viewBox="0 0 1146 428" style="enable-background:new 0 0 1146 428;" xml:space="preserve">
<style type="text/css">
	.st0{fill:#29ABE2;}
	.st1{fill:none;stroke:#000000;stroke-width:4;stroke-miterlimit:10;}
</style>
<path d="M212.7,159c23.2,0,42.9,14.6,50.6,35h16.8c18.3-29.6,36.1-59.5,54.1-89.2c4-6.6,8.1-13.1,12.5-20.2c7,5.3,13.2,10,19.4,14.6
	c0.7-0.9,1.4-1.8,2.1-2.6c-10.5-14.5-22.4-27.5-37.6-37.2c-0.8,0.6-1.5,1.3-2.3,1.9c3.9,5.5,7.8,11.1,12.1,17.1
	c-40.8,24.6-80.3,49.4-120.8,72.5c-6.7,3.8-11.4,1.5-16.2-0.5c-8.1-3.4-15.3-8.8-22.9-13.4c-31.8-19.2-63.5-38.5-95.3-57.7
	c4.6-6.6,8.8-12.5,12.9-18.5c-0.8-0.6-1.6-1.1-2.3-1.7C81,69.6,68.2,81.9,58.2,97c0.7,0.8,1.4,1.6,2.1,2.4c5.9-4.3,11.7-8.6,18-13.2
	c22.7,37.2,44.9,74.3,67.8,111c7.9,12.7,5.1,23.6-1.9,35c-20.5,33.4-40.8,66.8-61.3,100.2c-1.5,2.5-3.3,4.8-5,7.2
	c-6.3-4.7-12.1-8.9-17.8-13.1c-1,1.2-2,2.4-3,3.5c12.6,12.6,25.2,25.2,37.8,37.8c1.1-1.1,2.3-2.2,3.4-3.3c-4.3-5.8-8.6-11.7-13.3-18
	c39.7-24,78.8-47.5,117.9-71.2c7.6-4.7,14.2-2.4,21,1.7c22.4,13.7,44.9,27.2,67.4,40.8c15.8,9.6,31.6,19.2,47.5,28.9
	c-5,6.8-9.1,12.5-13.3,18.2c15.2-5.2,35.1-25.5,39.9-39.3c-7.5,5.4-13.3,9.6-19.6,14.1c-1.7-2.6-3.4-5-5-7.6
	c-15.9-26.6-31.1-53.6-47.4-79.9h-43.4c-9.7,9.3-22.9,15-37.4,15c-29.8,0-54-24.2-54-54C158.7,183.2,182.8,159,212.7,159z"/>
<path class="st0" d="M143.2,100.7c-5.8-3.5-12.2-6.4-17.2-10.8c-2.6-2.3-3.6-7.4-3.8-11.4c-0.9-20.2-15.2-38-34.4-41.9
	c-20.7-4.2-40.2,5.5-49.1,24.3c-12.4,26.3,4.8,59.8,34,61c17.6,0.7,20.5,11.8,26.7,22.4c-25.2,12-60.2,0.4-78.3-25.7
	C1.9,91.1,5.5,53.5,29.7,29.7c24.1-23.7,62.1-26.7,89-7C144.4,41.4,155.5,76.1,143.2,100.7z"/>
<path class="st0" d="M143.8,324.8c11,31.3-1.9,65-30.1,81.9c-28.7,17.2-65,11.1-88.2-14.8c-21.1-23.6-22.2-61-3-87
	c19-25.6,55.9-34.2,77.1-23c-3.7,6.1-6.9,12.4-11.2,18c-1.6,2.1-5.8,2.9-8.8,3c-26.1,0.7-45.4,19.5-45.1,44.4
	c0.3,23.4,19.6,42.9,43.2,43.3c24.3,0.4,43.6-19.6,44.5-45.3c0.1-3.8,3.2-8.3,6.3-11C132.8,330.4,138.3,328.1,143.8,324.8z"/>
<path class="st0" d="M324.1,144.4c2.8-4.7,5.6-8.6,7.5-13c3-6.9,7.7-8.8,15.1-8.8c20.6,0.1,38.1-15.3,41.7-35.3
	c3.8-21-7.1-40.8-26.7-48.8c-18.9-7.6-41.4-1-52.2,16.4c-3.8,6.2-7.4,14-7.1,20.8c0.5,10.7-4.5,15.4-12.6,19.4
	c-3,1.5-5.9,3.2-8.8,4.9c-12-20.5-2.3-55.8,20-74.4c25.8-21.4,64.7-21.3,89.4,0.3c26.8,23.5,32.7,60.3,14.3,89.8
	C387.6,143.6,352.8,156.3,324.1,144.4z"/>
<path class="st0" d="M325.1,281.4c23.2-11.9,58.6-0.6,77.4,24.8c18.8,25.4,16.6,64.3-4.9,86.9c-24.5,25.8-62.3,30.6-90.3,11.7
	c-30.5-20.6-37.1-59.7-26.5-79.6c6.1,3.7,12.4,6.9,17.9,11.2c2.1,1.6,3.1,5.7,3.2,8.7c0.8,25.8,19.1,45.2,43.2,45.4
	c24.4,0.2,44.3-19.5,44.4-44.1c0.1-24-19.5-42.6-45.1-43.6c-3.8-0.2-8.2-3.2-11-6.2c-3.4-3.6-5.5-8.6-8-13
	C325.1,282.8,325.2,282,325.1,281.4z"/>
<path class="st0" d="M176.4,248.9l15.2-71.7h30.4c4.7,0,8.8,0.5,12.3,1.4c3.5,0.9,6.4,2.5,8.7,4.7c2.3,2.2,4,5,5.2,8.6
	c1.2,3.5,1.8,7.9,1.8,13c0,5.5-0.7,10.9-2.1,16.1c-1.4,5.3-3.7,10-6.9,14.1c-3.2,4.1-7.5,7.5-12.7,10c-5.2,2.5-11.7,3.8-19.4,3.8
	H176.4z M207.4,241c2.5,0,4.7-1,6.6-3.1c1.9-2.1,3.6-4.7,5-7.9c1.4-3.2,2.6-6.7,3.5-10.6c0.9-3.9,1.7-7.6,2.3-11.2
	c0.6-3.6,1-6.9,1.2-9.7c0.3-2.9,0.4-4.9,0.4-6.1c0-2.3-0.5-4.2-1.4-5.5c-0.9-1.3-2.6-2-4.9-2h-5.4L202.5,241H207.4z"/>
<path d="M258.8,198.7h18.4l1.7,8.5h0.8c1.7-2.7,4-5,6.7-6.9c2.7-1.9,6.3-2.8,10.7-2.8c0.3,0,0.8,0,1.4,0.1c0.6,0,1.4,0.1,2.1,0.3
	c0.8,0.2,1.6,0.5,2.5,0.8c0.9,0.3,1.7,0.8,2.5,1.4l-5,23.3h-12.3c-0.2-4.7-0.6-7.9-1.2-9.8c-0.7-1.8-1.8-2.8-3.3-2.8
	c-0.8,0-1.6,0.2-2.4,0.5c-0.9,0.3-1.8,1.1-2.7,2.2l-7.2,33.8h-23L258.8,198.7z"/>
<path d="M339.8,197.5c9,0,15.5,1.6,19.5,4.7c4.3,3.3,6.4,8.8,6.4,16.5c0,4.7-0.8,9-2.4,12.8c-1.6,3.8-3.8,6.9-6.7,9.4
	c-5.7,4.8-14,7.2-24.8,7.2c-9.3,0-15.9-1.8-19.9-5.3c-4.3-3.7-6.4-9.2-6.4-16.6c0-4.9,1-9.3,3-13.3c2-4,4.9-7.3,8.6-9.9
	C322.7,199.3,330.2,197.5,339.8,197.5z M332.1,240.5c1.9,0,3.5-1.1,4.9-3.2c1.4-2.1,2.5-4.7,3.3-7.7c0.8-3,1.4-6.2,1.9-9.5
	c0.4-3.3,0.6-6.1,0.6-8.5c0-2.1-0.2-3.7-0.6-4.8c-0.4-1.1-1.3-1.6-2.7-1.6c-2,0-3.8,1.1-5.3,3.3c-1.5,2.2-2.7,4.8-3.6,7.8
	c-0.9,3-1.6,6.1-2,9.3c-0.4,3.2-0.6,5.7-0.6,7.7C328.2,238.1,329.5,240.5,332.1,240.5z"/>
<path d="M399.4,205.9c1.6-1.5,3.3-2.9,5.3-4.2c1.7-1.1,3.8-2,6.1-2.9c2.3-0.9,4.9-1.4,7.8-1.4c3.9,0,7.2,1,9.7,3
	c2.6,2,3.8,4.7,3.8,8.2c0,1-0.1,2.2-0.3,3.6c-0.2,1.4-0.5,2.8-0.8,4.3c-0.3,1.5-0.6,3-1,4.6c-0.3,1.5-0.6,2.9-0.8,4.1l-4.7,22h-22.9
	l6.2-29.5c0.2-1,0.3-2,0.6-3c0.2-1,0.3-1.9,0.3-2.8c0-1.1-0.3-2.1-0.8-2.8c-0.6-0.7-1.4-1.1-2.5-1.1c-1.4,0-2.7,0.5-3.9,1.5
	c-1.2,1-2.2,1.8-2.9,2.5l-7.5,35.1h-23l10.3-48.6h18.4l2,7.2H399.4z"/>
<path d="M460,224.6c-0.3,1.7-0.5,3.2-0.6,4.7c-0.1,1.5-0.2,2.9-0.2,4.1c0,0.7,0,1.4,0.1,2.3c0.1,0.8,0.2,1.6,0.5,2.3
	c0.3,0.7,0.6,1.3,1.1,1.8c0.5,0.5,1.2,0.7,2.1,0.7c0.7,0,1.5-0.2,2.3-0.7c0.9-0.5,1.7-1.1,2.6-1.9c0.9-0.8,1.7-1.8,2.5-3.1
	c0.8-1.2,1.4-2.6,1.9-4.1h18.5l-2.9,12.1c-1.5,1-3.2,1.8-5.2,2.5c-2,0.7-4,1.2-6.2,1.6c-2.2,0.4-4.4,0.7-6.7,0.9
	c-2.3,0.2-4.4,0.3-6.4,0.3c-3.8,0-7.3-0.3-10.5-1c-3.2-0.7-6.1-1.8-8.5-3.5c-2.4-1.7-4.3-3.9-5.7-6.6c-1.4-2.7-2.1-6.2-2.1-10.2
	c0-3.7,0.6-7.3,1.8-10.8c1.2-3.5,3.1-6.7,5.9-9.4c2.7-2.7,6.4-5,11.1-6.6c4.6-1.7,10.4-2.5,17.3-2.5c7.5,0,13.2,1.2,17,3.5
	c3.8,2.3,5.7,6,5.7,11c0,2-0.3,4.2-0.9,6.6c-0.6,2.4-1.5,4.4-2.7,6H460z M475,211.1c0-2.3-0.4-3.9-1.1-4.7c-0.8-0.8-1.7-1.2-2.7-1.2
	c-1.2,0-2.3,0.4-3.3,1.2c-1,0.8-1.9,1.8-2.8,3.2c-0.8,1.3-1.6,2.8-2.3,4.5c-0.7,1.7-1.2,3.5-1.7,5.4H474c0.2-0.9,0.3-1.8,0.5-2.8
	c0.1-0.8,0.3-1.7,0.4-2.7C474.9,212.9,475,212,475,211.1z"/>
<path d="M524.5,175.6H552l1.9,48.9l18.9-48.9h22.4l2.9,48.9l19-48.9h11.9L601,247.3h-25.4l-2.4-40.5l-16.9,40.5h-27.1L524.5,175.6z"
	/>
<path d="M654.7,197.5c9,0,15.5,1.6,19.5,4.7c4.3,3.3,6.4,8.8,6.4,16.5c0,4.7-0.8,9-2.4,12.8c-1.6,3.8-3.8,6.9-6.7,9.4
	c-5.7,4.8-14,7.2-24.8,7.2c-9.3,0-15.9-1.8-19.9-5.3c-4.3-3.7-6.4-9.2-6.4-16.6c0-4.9,1-9.3,3-13.3c2-4,4.9-7.3,8.6-9.9
	C637.6,199.3,645.1,197.5,654.7,197.5z M647,240.5c1.9,0,3.5-1.1,4.9-3.2c1.4-2.1,2.5-4.7,3.3-7.7c0.8-3,1.4-6.2,1.9-9.5
	c0.4-3.3,0.6-6.1,0.6-8.5c0-2.1-0.2-3.7-0.6-4.8c-0.4-1.1-1.3-1.6-2.7-1.6c-2,0-3.8,1.1-5.3,3.3c-1.5,2.2-2.7,4.8-3.6,7.8
	c-0.9,3-1.6,6.1-2,9.3c-0.4,3.2-0.6,5.7-0.6,7.7C643.1,238.1,644.4,240.5,647,240.5z"/>
<path d="M693.2,198.7h18.4l1.7,8.5h0.8c1.7-2.7,4-5,6.7-6.9c2.7-1.9,6.3-2.8,10.7-2.8c0.3,0,0.8,0,1.4,0.1c0.6,0,1.4,0.1,2.2,0.3
	c0.8,0.2,1.6,0.5,2.5,0.8c0.9,0.3,1.7,0.8,2.5,1.4l-5,23.3h-12.3c-0.1-4.7-0.6-7.9-1.2-9.8c-0.7-1.8-1.8-2.8-3.3-2.8
	c-0.8,0-1.6,0.2-2.4,0.5c-0.9,0.3-1.8,1.1-2.7,2.2l-7.2,33.8h-23L693.2,198.7z"/>
<path d="M766.5,219.3l26.3-20.6h14.9l-22.5,18.4l16.8,30.2h-25.3l-11.5-22.7l-4.7,22.7h-23l16-75.9h23.2L766.5,219.3z"/>
<path d="M811.6,198.7h8.7l1-4.6c1-4.5,2.4-8.3,4.3-11.5c1.9-3.1,4.1-5.7,6.7-7.6c2.6-2,5.6-3.4,8.9-4.2c3.3-0.9,6.9-1.3,10.6-1.3
	c2.3,0,4.8,0.2,7.5,0.5c2.6,0.3,5.4,0.8,8.2,1.5l-1.8,9c-1.7-0.2-3.4-0.4-5.3-0.5c-1.9-0.1-3.4-0.2-4.5-0.2c-1.5,0-2.8,0.1-3.9,0.3
	c-1.1,0.2-2,0.7-2.9,1.3c-0.8,0.6-1.5,1.5-2.1,2.7c-0.6,1.1-1.1,2.6-1.5,4.5l-2.1,10.2h11.9l-1.5,7.6h-12l-8.7,41h-23l8.7-41h-8.8
	L811.6,198.7z"/>
<path d="M886.5,197.5c9,0,15.5,1.6,19.5,4.7c4.3,3.3,6.4,8.8,6.4,16.5c0,4.7-0.8,9-2.4,12.8c-1.6,3.8-3.8,6.9-6.7,9.4
	c-5.7,4.8-14,7.2-24.8,7.2c-9.3,0-15.9-1.8-19.9-5.3c-4.3-3.7-6.4-9.2-6.4-16.6c0-4.9,1-9.3,3-13.3c2-4,4.9-7.3,8.6-9.9
	C869.4,199.3,876.9,197.5,886.5,197.5z M878.8,240.5c1.9,0,3.5-1.1,4.9-3.2c1.4-2.1,2.5-4.7,3.3-7.7c0.8-3,1.4-6.2,1.9-9.5
	c0.4-3.3,0.6-6.1,0.6-8.5c0-2.1-0.2-3.7-0.6-4.8c-0.4-1.1-1.3-1.6-2.7-1.6c-2,0-3.8,1.1-5.3,3.3c-1.5,2.2-2.7,4.8-3.6,7.8
	c-0.9,3-1.6,6.1-2,9.3c-0.4,3.2-0.6,5.7-0.6,7.7C874.8,238.1,876.1,240.5,878.8,240.5z"/>
<path d="M925,198.7h18.4l1.7,8.5h0.8c1.7-2.7,4-5,6.7-6.9c2.7-1.9,6.3-2.8,10.7-2.8c0.3,0,0.8,0,1.4,0.1c0.6,0,1.4,0.1,2.2,0.3
	c0.8,0.2,1.6,0.5,2.5,0.8c0.9,0.3,1.7,0.8,2.5,1.4l-5,23.3h-12.3c-0.1-4.7-0.6-7.9-1.2-9.8c-0.7-1.8-1.8-2.8-3.3-2.8
	c-0.8,0-1.6,0.2-2.4,0.5c-0.9,0.3-1.8,1.1-2.7,2.2l-7.2,33.8h-23L925,198.7z"/>
<path d="M1020.5,244.6c-3.2,1.3-6.5,2.2-10,2.8c-3.5,0.6-7.5,0.8-11.9,0.8c-3.9,0-7.5-0.4-10.8-1.2c-3.3-0.8-6.1-2-8.5-3.8
	c-2.4-1.7-4.3-4-5.6-6.7c-1.4-2.7-2-6.1-2-10c0-4.1,0.7-7.9,2.1-11.4c1.4-3.5,3.5-6.6,6.3-9.2c2.8-2.6,6.4-4.7,10.8-6.2
	c4.4-1.5,9.6-2.3,15.6-2.3c4.9,0,9.1,0.4,12.8,1.2c3.6,0.8,6.6,2.6,8.9,5.4l-3.2,14.5h-15.4c0.1-1.3,0.2-2.4,0.2-3.4
	c0.1-1,0.1-2.1,0.1-3.3c0-2.4-0.3-4.1-0.8-5.1c-0.5-1-1.4-1.5-2.6-1.5c-2.1,0-4,1-5.5,3.1c-1.6,2.1-2.9,4.6-3.9,7.5
	c-1,2.9-1.8,6-2.3,9.1c-0.5,3.2-0.7,5.9-0.7,8.2c0,0.8,0,1.7,0.1,2.5c0.1,0.9,0.2,1.7,0.5,2.4c0.3,0.8,0.6,1.4,1.1,1.8
	c0.5,0.5,1.1,0.7,1.9,0.7c0.8,0,1.6-0.2,2.6-0.7c1-0.5,1.9-1.1,2.8-2.1c0.9-0.9,1.8-2.2,2.6-3.7c0.8-1.5,1.5-3.3,1.9-5.4h16.2
	L1020.5,244.6z"/>
<path d="M1053.8,224.6c-0.3,1.7-0.5,3.2-0.6,4.7c-0.1,1.5-0.2,2.9-0.2,4.1c0,0.7,0,1.4,0.1,2.3c0.1,0.8,0.2,1.6,0.5,2.3
	c0.3,0.7,0.6,1.3,1.1,1.8c0.5,0.5,1.2,0.7,2.1,0.7c0.7,0,1.4-0.2,2.3-0.7c0.9-0.5,1.7-1.1,2.6-1.9c0.9-0.8,1.7-1.8,2.5-3.1
	c0.8-1.2,1.4-2.6,1.9-4.1h18.5l-2.9,12.1c-1.5,1-3.2,1.8-5.2,2.5c-2,0.7-4,1.2-6.2,1.6c-2.2,0.4-4.4,0.7-6.7,0.9
	c-2.3,0.2-4.4,0.3-6.4,0.3c-3.8,0-7.3-0.3-10.5-1c-3.2-0.7-6.1-1.8-8.5-3.5c-2.4-1.7-4.3-3.9-5.7-6.6c-1.4-2.7-2.1-6.2-2.1-10.2
	c0-3.7,0.6-7.3,1.7-10.8c1.2-3.5,3.1-6.7,5.9-9.4c2.7-2.7,6.4-5,11.1-6.6c4.6-1.7,10.4-2.5,17.3-2.5c7.5,0,13.2,1.2,17,3.5
	c3.8,2.3,5.7,6,5.7,11c0,2-0.3,4.2-0.9,6.6c-0.6,2.4-1.5,4.4-2.7,6H1053.8z M1068.9,211.1c0-2.3-0.4-3.9-1.1-4.7
	c-0.8-0.8-1.7-1.2-2.7-1.2c-1.2,0-2.3,0.4-3.3,1.2c-1,0.8-1.9,1.8-2.8,3.2c-0.8,1.3-1.6,2.8-2.3,4.5c-0.7,1.7-1.2,3.5-1.7,5.4h12.9
	c0.2-0.9,0.3-1.8,0.5-2.8c0.1-0.8,0.3-1.7,0.4-2.7C1068.8,212.9,1068.9,212,1068.9,211.1z"/>
<g>
	<path class="st0" d="M411.7,298h32.1c1.6,0,2.2-0.6,2.2-1.6v-8.6c0-1-0.6-1.6-2.2-1.6h-20.6c-7,0-11.4-2.9-11.4-8.6v-5.7
		c0-5.7,4.4-8.6,11.4-8.6h32.4v7.3h-28.9c-1.6,0-2.2,0.6-2.2,1.6v5.1c0,1,0.6,1.6,2.2,1.6h20.6c7,0,11.4,2.9,11.4,8.6v9.2
		c0,5.7-4.4,8.6-11.4,8.6h-35.6V298z"/>
	<path class="st0" d="M508.7,281.8c0-5.1,3.8-7.6,10.2-7.6h16.5c6.4,0,10.2,2.5,10.2,7.6v15.9c0,5.1-3.8,7.6-10.2,7.6h-16.5
		c-6.4,0-10.2-2.5-10.2-7.6V281.8z M521.7,298.9h10.8c1,0,1.6-0.3,1.6-1.3v-15.9c0-1-0.6-1.3-1.6-1.3h-10.8c-1,0-1.6,0.3-1.6,1.3
		v15.9C520.2,298.6,520.8,298.9,521.7,298.9z"/>
	<path class="st0" d="M595.6,263.4H607v41.9h-11.4V263.4z"/>
	<path class="st0" d="M657,274.2h11.4v23.5c0,1,0.6,1.3,1.6,1.3h12.4v-24.8h11.4v31.1h-26.7c-6.4,0-10.2-2.5-10.2-7.6V274.2z"/>
	<path class="st0" d="M743.9,263.4h11.4v10.8h12.1v6.4h-12.1v17.2c0,1,0.6,1.3,1.6,1.3h10.5v6.4h-13.3c-6.4,0-10.2-2.5-10.2-7.6
		V263.4z"/>
	<path class="st0" d="M816.1,263.4h11.4v6.4h-11.4V263.4z M816.1,274.2h11.4v31.1h-11.4V274.2z"/>
	<path class="st0" d="M877.6,281.8c0-5.1,3.8-7.6,10.2-7.6h16.5c6.4,0,10.2,2.5,10.2,7.6v15.9c0,5.1-3.8,7.6-10.2,7.6h-16.5
		c-6.4,0-10.2-2.5-10.2-7.6V281.8z M890.6,298.9h10.8c1,0,1.6-0.3,1.6-1.3v-15.9c0-1-0.6-1.3-1.6-1.3h-10.8c-1,0-1.6,0.3-1.6,1.3
		v15.9C889,298.6,889.7,298.9,890.6,298.9z"/>
	<path class="st0" d="M964.5,274.2h26.7c6.4,0,10.2,2.5,10.2,7.6v23.5h-11.4v-23.5c0-1-0.6-1.3-1.6-1.3h-12.4v24.8h-11.4V274.2z"/>
	<path class="st0" d="M1050.7,298.9h23.8c1,0,1.6-0.3,1.6-1.3v-4.4c0-1-0.6-1.3-1.6-1.3h-13.7c-6.4,0-10.2-2.5-10.2-7.6v-2.5
		c0-5.1,3.8-7.6,10.2-7.6h24.1v6.4h-21.3c-0.9,0-1.6,0.3-1.6,1.3v2.5c0,1,0.6,1.3,1.6,1.3h13.7c6.4,0,10.2,2.5,10.2,7.6v4.4
		c0,5.1-3.8,7.6-10.2,7.6h-26.7V298.9z"/>
</g>
<ellipse transform="matrix(0.9999 -1.398003e-02 1.398003e-02 0.9999 -2.3573 15.597)" class="st1" cx="1114.4" cy="176.4" rx="25.1" ry="25.1"/>
<g>
	<path d="M1120.9,186.1l-4.2-6.7c-0.3,0-0.7,0-1,0l-5.3,0.1l0.1,6.7l-3.7,0.1l-0.3-22.2l9-0.1c5.7-0.1,9,2.6,9,7.4
		c0,3.5-1.6,6.1-4.5,7.3l5.1,7.3L1120.9,186.1z M1115.7,176.1c3.4,0,5.4-1.5,5.3-4.5c0-2.9-2-4.3-5.4-4.2l-5.3,0.1l0.1,8.8
		L1115.7,176.1z"/>
</g>
</svg>
